<svg width="36" height="24" viewBox="0 0 36 24" fill="none" xmlns="http://www.w3.org/2000/svg">
<g clip-path="url(#clip0_51_3060)">
<path d="M14.0423 4.20341H25.7138M25.7138 4.20341L15.4269 23.8049M25.7138 4.20341L36 23.8049H33.7354L25.7138 8.51879L17.6915 23.8049H15.4269M15.4269 23.8049C15.4269 23.8049 14.3146 22.8288 12.7854 22.8288C11.2562 22.8288 10.2846 23.8049 10.2846 23.8049M28.5877 9.68033V1.77341H22.8392V4.20341M8.61462 7.38956L0 23.8049C0 23.8049 0.971538 22.8288 2.50077 22.8288C4.03 22.8288 5.14231 23.8049 5.14231 23.8049M34.4785 23.8049H21.5008M10.2846 23.8049C10.2846 23.8049 9.17231 22.8288 7.64308 22.8288C6.11385 22.8288 5.14231 23.8049 5.14231 23.8049M10.2846 23.8049L20.5715 4.20341M5.14231 23.8049L15.4285 4.20341M17.9985 18.9057C17.9985 18.9057 16.8862 17.9296 15.3569 17.9296C13.8277 17.9296 12.8562 18.9057 12.8562 18.9057C12.8562 18.9057 11.7438 17.9296 10.2146 17.9296C8.68538 17.9296 7.71385 18.9057 7.71385 18.9057M7.71308 18.9057C7.71308 18.9057 6.60077 17.9296 5.07154 17.9296C3.54231 17.9296 2.57077 18.9057 2.57077 18.9057M20.5692 14.0057C20.5692 14.0057 19.4569 13.0296 17.9277 13.0296C16.3985 13.0296 15.4269 14.0057 15.4269 14.0057C15.4269 14.0057 14.3146 13.0296 12.7854 13.0296C11.2562 13.0296 10.2846 14.0057 10.2846 14.0057C10.2846 14.0057 9.17231 13.0296 7.64308 13.0296C6.11385 13.0296 5.14231 14.0057 5.14231 14.0057M23.1408 9.10648C23.1408 9.10648 22.0285 8.13033 20.4992 8.13033C18.97 8.13033 17.9985 9.10648 17.9985 9.10648C17.9985 9.10648 16.8862 8.13033 15.3569 8.13033C13.8277 8.13033 12.8562 9.10648 12.8562 9.10648C12.8562 9.10648 11.7438 8.13033 10.2146 8.13033C8.68538 8.13033 7.71385 9.10648 7.71385 9.10648M10.8108 0.194946C9.28154 0.194946 8.31 1.1711 8.31 1.1711L5.73846 6.07033C5.73846 6.07033 6.71 5.09418 8.23923 5.09418C9.76846 5.09418 10.8808 6.07033 10.8808 6.07033L13.4523 1.1711C13.4523 1.1711 12.34 0.194946 10.8108 0.194946Z" stroke="#1B1C1B" stroke-width="1.5" stroke-linecap="round" stroke-linejoin="round"/>
</g>
<defs>
<clipPath id="clip0_51_3060">
<rect width="36" height="23.61" fill="white" transform="translate(0 0.194946)"/>
</clipPath>
</defs>
</svg>
