<svg width="36" height="36" viewBox="0 0 36 36" fill="none" xmlns="http://www.w3.org/2000/svg">
<g clip-path="url(#clip0_51_3058)">
<path d="M30.1485 9.81263V4.2473H26.8488V7.1469M18 9.66646V14.3509M18.0131 31.4393L21.9805 35.4067C22.7691 36.1952 24.0477 36.1952 24.8363 35.4067C25.6248 34.6181 25.6248 33.3395 24.8363 32.5509L20.8688 28.5835M18.4608 26.1747L13.9564 21.6703C14.4049 20.1793 14.0341 18.6753 12.964 17.6059C11.81 16.4519 10.1505 16.1111 8.56956 16.7135L11.2622 19.4069L8.83652 21.8326L6.14386 19.14C5.54148 20.7217 5.88229 22.3804 7.03629 23.5344C8.10565 24.6038 9.60969 24.9746 11.1007 24.5268L15.6051 29.0312M23.7038 20.9317L11.2137 33.4218C10.9837 33.6518 10.9837 34.0242 11.2137 34.2542L12.7893 35.8298C13.0194 36.0598 13.3917 36.0598 13.6217 35.8298L25.9156 23.5359M18 -0.00170898L0 14.5402L2.06411 16.9528L18 4.17575L33.9359 16.9528L36 14.5402L18 -0.00170898ZM15.4235 9.66646V14.3509H20.5765V9.66646H15.4235ZM27.882 19.0461L31.981 23.1451C32.0941 23.2582 32.0741 23.4621 31.9364 23.6006L29.2076 26.3294C29.0691 26.4678 28.8652 26.4878 28.7521 26.374L24.5816 22.2042C24.487 22.1096 24.4008 22.008 24.3216 21.8996L21.2489 17.0297C20.9265 16.5843 21.5781 15.898 22.049 16.1858L27.4104 18.6745C27.5828 18.7799 27.7405 18.9038 27.882 19.0453V19.0461Z" stroke="#1B1C1B" stroke-width="1.5" stroke-linecap="round" stroke-linejoin="round"/>
</g>
<defs>
<clipPath id="clip0_51_3058">
<rect width="36" height="36.004" fill="white" transform="translate(0 -0.00170898)"/>
</clipPath>
</defs>
</svg>
