<svg width="18" height="22" viewBox="0 0 18 22" fill="none" xmlns="http://www.w3.org/2000/svg">
<g clip-path="url(#clip0_59_455)">
<path d="M12.4989 2.74878C12.4989 1.50614 11.4915 0.498779 10.2489 0.498779H2.74887C1.50623 0.498779 0.498871 1.50614 0.498871 2.74878V18.2488C0.498871 19.4914 1.50623 20.4988 2.74887 20.4988H5.58554L6.04228 18.9988H2.74887C2.33466 18.9988 1.99887 18.663 1.99887 18.2488V2.74878C1.99887 2.33457 2.33466 1.99878 2.74887 1.99878H10.2489C10.6631 1.99878 10.9989 2.33457 10.9989 2.74878V9.57549C11.3254 9.52499 11.66 9.49878 12.0007 9.49878C12.1681 9.49878 12.3342 9.50511 12.4989 9.51762V2.74878ZM15.4989 11.7545C14.6612 11.0634 13.6154 10.6154 12.4697 10.5185C12.3149 10.5054 12.1582 10.4988 12 10.4988C8.96181 10.4988 6.49887 12.9618 6.49887 16C6.49887 16.9679 6.74885 17.8775 7.18777 18.6676L6.52199 20.8541C6.40545 21.2369 6.76323 21.5947 7.146 21.4782L9.33313 20.8127C10.1231 21.2514 11.0324 21.5012 12 21.5012C15.0382 21.5012 17.5011 19.0382 17.5011 16C17.5011 14.2908 16.7217 12.7635 15.4989 11.7545ZM9.99978 15.4999C9.72358 15.4999 9.49968 15.276 9.49968 14.9998C9.49968 14.7236 9.72358 14.4997 9.99978 14.4997H14.0004C14.2766 14.4997 14.5005 14.7236 14.5005 14.9998C14.5005 15.276 14.2766 15.4999 14.0004 15.4999H9.99978ZM12 17.5003H9.99978C9.72358 17.5003 9.49968 17.2764 9.49968 17.0002C9.49968 16.724 9.72358 16.5001 9.99978 16.5001H12C12.2762 16.5001 12.5001 16.724 12.5001 17.0002C12.5001 17.2764 12.2762 17.5003 12 17.5003Z" fill="#1B1C1B"/>
</g>
<defs>
<clipPath id="clip0_59_455">
<rect width="17.0023" height="21.0024" fill="white" transform="translate(0.498871 0.498779)"/>
</clipPath>
</defs>
</svg>
