<svg width="36" height="36" viewBox="0 0 36 36" fill="none" xmlns="http://www.w3.org/2000/svg">
<g clip-path="url(#clip0_51_3059)">
<path d="M20.13 35.735V25.3658H20.6538M20.13 35.735H3.67692V25.3658M20.13 35.735H31.7469M20.13 35.735H23.8762V27.9112H28.3269V35.735H31.7469M3.67692 25.3658H0M3.67692 25.3658H18.73M31.7469 25.3658V35.735M31.7469 25.3658H36L27.3554 12.0573M31.7469 25.3658L26.2325 16.8861M31.7469 25.3658H34.0638L27.3592 15.1735L26.2325 16.8861M20.6538 25.3658H18.73M20.6538 25.3658L26.2325 16.8861M27.3554 12.0573L18.73 25.3658M27.3554 12.0573H8.62462L0 25.3658M18.73 25.3658H0M26.2323 16.8858L26.2325 16.8861M9.15846 27.9112H14.5438M9.15846 27.9112V32.6565M9.15846 27.9112H11.8508M14.5438 27.9112V32.6565M14.5438 27.9112H11.8508M14.5438 32.6565H9.15846M14.5438 32.6565H11.8508M9.15846 32.6565H11.8508M11.8508 27.9112V32.6565M34.3023 12.7627C34.7077 13.0642 35.1077 13.3804 35.4915 13.7019M28.8092 9.61886C29.7808 10.0312 30.7362 10.505 31.6492 11.0265M4.35308 11.025C5.26616 10.5027 6.22231 10.0289 7.19385 9.61655M22.7369 7.8404C23.7769 8.01809 24.8162 8.25809 25.8246 8.55271M10.18 8.55194C11.19 8.25732 12.2292 8.01732 13.2685 7.83963M16.4185 7.48501C16.9415 7.45578 17.4738 7.44116 18 7.44116C18.5215 7.44116 19.06 7.45578 19.5877 7.48578M0.50769 13.7019C0.893075 13.3789 1.29308 13.0635 1.69692 12.7627M16.16 0.265015L17.4015 5.30886L20.3662 2.57194M20.3662 2.57194L18.7923 2.63886M20.3662 2.57194L20.3246 4.12501M25.7431 0.265015L26.9846 5.30886L29.9492 2.57194M29.9492 2.57194L28.3754 2.63886M29.9492 2.57194L29.9085 4.12501M6.57692 0.265015L7.81846 5.30886L10.7831 2.57194M10.7831 2.57194L9.20923 2.63886M10.7831 2.57194L10.7415 4.12501" stroke="#1B1C1B" stroke-width="1.5" stroke-linecap="round" stroke-linejoin="round"/>
</g>
<defs>
<clipPath id="clip0_51_3059">
<rect width="36" height="35.47" fill="white" transform="translate(0 0.265015)"/>
</clipPath>
</defs>
</svg>
