<svg width="36" height="28" viewBox="0 0 36 28" fill="none" xmlns="http://www.w3.org/2000/svg">
<g clip-path="url(#clip0_51_3061)">
<path d="M25.7138 8.14967H10.2862L0 27.7512H15.4269M25.7138 8.14967L15.4269 27.7512M25.7138 8.14967L36 27.7512H33.7354L25.7131 12.4651L17.6915 27.7512H15.4269M28.5877 13.6266V5.71967H22.8392V8.14967M34.4785 27.7512H21.5008M17.9262 22.8512H2.57154M20.57 17.9504H5.14308M23.1415 13.0504H7.71461M15.4285 8.14967L5.14231 27.7512M20.5708 8.14967L10.2846 27.7512M4.18385 0.877362V0.248901M1.67 1.9189L1.22538 1.47429M0.62846 4.43274H0M1.67 6.94659L1.22538 7.39044M4.18385 7.98736V8.61582M6.69692 6.94659L7.14154 7.39121M7.73846 4.43274H8.36692M6.69769 1.9189L7.14154 1.47429M6.15 4.43274C6.15 5.5189 5.26923 6.39967 4.18308 6.39967C3.09692 6.39967 2.21615 5.5189 2.21615 4.43274C2.21615 3.34659 3.09692 2.46582 4.18308 2.46582C5.26923 2.46582 6.15 3.34659 6.15 4.43274Z" stroke="#313131" stroke-width="1.5" stroke-linecap="round" stroke-linejoin="round"/>
</g>
<defs>
<clipPath id="clip0_51_3061">
<rect width="36" height="27.5023" fill="white" transform="translate(0 0.248901)"/>
</clipPath>
</defs>
</svg>
