<svg width="36" height="24" viewBox="0 0 36 24" fill="none" xmlns="http://www.w3.org/2000/svg">
<g clip-path="url(#clip0_51_3063)">
<path d="M25.7131 3.41425H10.2862L7.97692 7.81579M25.7131 3.41425L36 23.0158H33.7354L25.7131 7.72964L17.6915 23.0158H15.4269M25.7131 3.41425L18.4685 17.2189C17.5923 18.8889 15.8362 19.9396 13.9523 19.845C13.8985 19.8419 13.8446 19.8389 13.79 19.8343C11.6285 19.655 10.0215 17.7573 10.2008 15.5958C10.3446 13.8666 11.8623 12.5812 13.5915 12.7243C14.9746 12.8389 16.0031 14.0535 15.8885 15.4366C15.7969 16.5435 14.8254 17.3658 13.7185 17.2743M16.3154 21.3235L15.4269 23.0158M15.4269 23.0158H0L3.78692 15.7996M28.5877 8.89117V0.984253H22.8392V3.41425M34.4785 23.0158H21.5M12.1523 19.3243L3.78692 13.8673C2.74 13.2327 2.08308 12.0427 2.19154 10.7396C2.31308 9.27194 3.60154 8.18118 5.06924 8.30271C5.37 8.32733 5.65154 8.41425 5.90154 8.54887M5.90154 8.5481L14.7354 13.1089" stroke="#1B1C1B" stroke-width="2" stroke-linecap="round" stroke-linejoin="round"/>
</g>
<defs>
<clipPath id="clip0_51_3063">
<rect width="36" height="22.0315" fill="white" transform="translate(0 0.984253)"/>
</clipPath>
</defs>
</svg>
