<svg width="66" height="65" viewBox="0 0 66 65" fill="none" xmlns="http://www.w3.org/2000/svg">
<g clip-path="url(#clip0_12_628)">
<path d="M8.47795 17.3684C8.85775 16.5581 8.99574 15.5298 9.61733 14.9374C13.2808 11.0675 16.9443 7.19761 20.786 3.6163C23.3844 1.21973 25.0215 1.54274 25.4863 4.13889C26.1032 8.02484 26.6564 11.9815 27.1613 15.8945C24.0085 16.7668 22.9115 15.65 21.5421 9.29266C20.9075 10.3856 20.3189 11.1358 19.9392 11.9462C14.8025 23.9656 16.06 40.8521 29.9947 44.063C35.7743 45.4303 41.791 46.2429 48.5012 45.1191C53.0493 44.3519 57.6258 42.9698 62.2081 39.9281C62.8627 39.4936 63.5834 39.3747 64.4952 39.0439C64.0328 42.0851 62.023 43.7315 59.881 44.7465C56.9877 46.1088 53.9493 47.3404 51.0359 48.0442C39.7823 50.7079 30.0125 49.5861 21.9045 44.9674C13.7965 40.3487 11.7075 26.4269 16.8748 14.1789C17.586 12.5147 18.4093 10.8234 19.3576 8.60441C15.1574 11.2221 12.8763 15.6977 9.07361 17.7772C8.97689 17.6901 8.73509 17.4721 8.47795 17.3684Z" fill="white"/>
</g>
<defs>
<clipPath id="clip0_12_628">
<rect width="65.7649" height="63.9854" fill="white" transform="translate(0 0.5)"/>
</clipPath>
</defs>
</svg>
