<svg width="60" height="48" viewBox="0 0 60 48" fill="none" xmlns="http://www.w3.org/2000/svg">
<g clip-path="url(#clip0_12_586)">
<path d="M4.57234 34.9218C4.63774 35.5401 4.42977 36.3162 4.76853 36.7767C6.64549 39.7752 8.52246 42.7736 10.6412 45.5596C12.0825 47.4247 13.5693 47.2223 14.7822 45.2828C16.5311 42.3778 18.2484 39.4181 19.9111 36.49C17.5196 35.7568 16.239 36.569 13.0732 41.3126C12.8815 40.4756 12.6206 39.8973 12.5552 39.279C12.0054 30.12 18.4012 17.4612 31.2024 15.3918C36.5231 14.5068 41.8691 14.0445 47.1904 15.0544C50.7954 15.7431 54.2302 16.8945 57.146 19.2933C57.5625 19.6359 58.1346 19.743 58.8014 20.0141C59.3706 17.7173 58.1903 16.4306 56.6989 15.615C54.6817 14.5199 52.5004 13.5195 50.2582 12.9187C41.5799 10.6396 32.9614 11.2418 24.6445 14.5127C16.3276 17.7837 10.1645 28.1941 10.6681 37.5256C10.7442 38.7938 10.9066 40.0851 11.0081 41.776C8.28172 39.7052 7.76535 36.2857 5.20529 34.6292C5.09595 34.6924 4.82259 34.8502 4.57234 34.9218Z" fill="white"/>
</g>
<defs>
<clipPath id="clip0_12_586">
<rect width="59.9833" height="47.5778" fill="white" transform="translate(0 0.368896)"/>
</clipPath>
</defs>
</svg>
