<svg width="16" height="17" viewBox="0 0 16 17" fill="none" xmlns="http://www.w3.org/2000/svg">
<g clip-path="url(#clip0_12_705)">
<path fill-rule="evenodd" clip-rule="evenodd" d="M11 0.437012H5C2.239 0.437012 0 2.67601 0 5.43701V11.437C0 14.198 2.239 16.437 5 16.437H11C13.761 16.437 16 14.198 16 11.437V5.43701C16 2.67601 13.761 0.437012 11 0.437012ZM14.5 11.437C14.5 13.367 12.93 14.937 11 14.937H5C3.07 14.937 1.5 13.367 1.5 11.437V5.43701C1.5 3.50701 3.07 1.93701 5 1.93701H11C12.93 1.93701 14.5 3.50701 14.5 5.43701V11.437ZM8 4.43701C5.791 4.43701 4 6.22801 4 8.43701C4 10.646 5.791 12.437 8 12.437C10.209 12.437 12 10.646 12 8.43701C12 6.22801 10.209 4.43701 8 4.43701ZM8 10.937C6.622 10.937 5.5 9.81501 5.5 8.43701C5.5 7.05801 6.622 5.93701 8 5.93701C9.378 5.93701 10.5 7.05801 10.5 8.43701C10.5 9.81501 9.378 10.937 8 10.937ZM12.8329 4.137C12.8329 4.43137 12.5943 4.67 12.2999 4.67C12.0056 4.67 11.7669 4.43137 11.7669 4.137C11.7669 3.84264 12.0056 3.604 12.2999 3.604C12.5943 3.604 12.8329 3.84264 12.8329 4.137Z" fill="#F3F1EB"/>
</g>
<defs>
<clipPath id="clip0_12_705">
<rect width="16" height="16" fill="white" transform="translate(0 0.437012)"/>
</clipPath>
</defs>
</svg>
