<svg width="40" height="41" viewBox="0 0 40 41" fill="none" xmlns="http://www.w3.org/2000/svg">
<g clip-path="url(#clip0_41_870)">
<path fill-rule="evenodd" clip-rule="evenodd" d="M20 40.5C31.0457 40.5 40 31.5457 40 20.5C40 9.45432 31.0457 0.500015 20 0.500015C8.95429 0.500015 0 9.45432 0 20.5C0 31.5457 8.95429 40.5 20 40.5ZM26.2393 9.81685C26.543 8.73806 25.4961 8.10014 24.54 8.78131L11.1931 18.2896C10.1562 19.0283 10.3193 20.5 11.4381 20.5H14.9527V20.4728H21.8025L16.2212 22.4421L13.7607 31.1832C13.457 32.262 14.5038 32.8999 15.46 32.2187L28.8069 22.7105C29.8438 21.9718 29.6806 20.5 28.5619 20.5H23.2321L26.2393 9.81685Z" fill="#7FFBAE"/>
</g>
<defs>
<clipPath id="clip0_41_870">
<rect width="40" height="40" fill="white" transform="translate(0 0.500015)"/>
</clipPath>
</defs>
</svg>
